# xmcd CD database file
#
# Track frame offsets:
#	150
#	21756
#	47839
#	64157
#	78077
#	99531
#	127817
#	142768
#	159750
#
# Disc length: 2329 seconds
#
# Revision: 0
# Processed by: cddbd v1.5.2PL0 Copyright (c) Steve Scherf et al.
# Submitted via: CDex 1.70beta2
#
DISCID=61091709
DTITLE=Various Artist - Icelandic Jazz Favourites
DYEAR=2000
DGENRE=Jazz
TTITLE0=Garden party (Mezzoforte)
TTITLE1=Neurotic and frenzied (Tómas R. Einarsson)
TTITLE2=Sólskarð (Óskar Guðjónsson)
TTITLE3=Búðarvísur (Guðmundur Ingólfsson)
TTITLE4=Cloud 30 (Friðrik Karlsson)
TTITLE5=E.G. blues (Mezzoforte)
TTITLE6=Maístjarnan (Egill B. Hreinsson)
TTITLE7=Tómthúsamaður (Tríó Bjössa Thor)
TTITLE8=Ólastef (The Ólafur Stephensen trio)
EXTD=YEAR: 2000
EXTT0=
EXTT1=
EXTT2=
EXTT3=
EXTT4=
EXTT5=
EXTT6=
EXTT7=
EXTT8=
PLAYORDER=
